#define helenos_width 127
#define helenos_height 120
static unsigned char helenos_bits[] = {
   0x00, 0x00, 0x00, 0x00, 0x00, 0x00, 0x00, 0x00, 0x00, 0x00, 0x00, 0x00,
   0x00, 0x00, 0x00, 0x00, 0x00, 0x00, 0x00, 0x00, 0x00, 0x00, 0x00, 0x00,
   0x00, 0x00, 0x00, 0x00, 0x00, 0x00, 0x00, 0x00, 0x00, 0x00, 0x00, 0x00,
   0x00, 0x00, 0x00, 0x00, 0x00, 0x00, 0x00, 0x00, 0x00, 0x00, 0x00, 0x00,
   0x00, 0x00, 0x00, 0x00, 0x00, 0x00, 0x00, 0x00, 0x00, 0x00, 0x00, 0x00,
   0x00, 0x00, 0x00, 0x00, 0x00, 0x00, 0x00, 0x00, 0x00, 0x00, 0x00, 0x00,
   0x00, 0x00, 0x00, 0x00, 0x00, 0x00, 0x00, 0x00, 0x00, 0x00, 0x00, 0x00,
   0x00, 0x00, 0x00, 0x00, 0x00, 0xc0, 0x03, 0x00, 0x00, 0x00, 0x00, 0x00,
   0x00, 0x00, 0x00, 0x00, 0x00, 0x00, 0x00, 0x00, 0x00, 0xfc, 0x1f, 0x00,
   0x00, 0x00, 0x00, 0x00, 0x00, 0x00, 0x00, 0x00, 0x00, 0x00, 0x00, 0x00,
   0x80, 0x0f, 0x78, 0x40, 0x00, 0x00, 0x00, 0x00, 0x00, 0x00, 0x00, 0x00,
   0x00, 0x00, 0x00, 0x00, 0xf0, 0x01, 0xc0, 0xc0, 0x00, 0x00, 0x00, 0x00,
   0x00, 0x00, 0x00, 0x00, 0x00, 0x00, 0x00, 0x00, 0x7e, 0x00, 0x80, 0x81,
   0x00, 0x00, 0x00, 0x00, 0x00, 0x00, 0x00, 0x00, 0x00, 0x00, 0x00, 0xc0,
   0x0f, 0x00, 0x00, 0x83, 0x01, 0x00, 0x00, 0x00, 0x00, 0x00, 0x00, 0x00,
   0x00, 0x00, 0x00, 0xf0, 0x01, 0x00, 0x00, 0x03, 0x01, 0x00, 0x00, 0x00,
   0x00, 0x00, 0x00, 0x00, 0x00, 0x00, 0x00, 0x3e, 0x00, 0x00, 0x00, 0x06,
   0x03, 0x00, 0x00, 0x00, 0x00, 0x00, 0x00, 0x00, 0x00, 0x00, 0xc0, 0x07,
   0x00, 0x00, 0x00, 0x06, 0x02, 0x00, 0x00, 0x00, 0x00, 0x00, 0x00, 0x00,
   0x00, 0x00, 0xf8, 0x00, 0x00, 0x00, 0x00, 0x0c, 0x02, 0x00, 0x00, 0x00,
   0x00, 0x00, 0x00, 0x00, 0x00, 0x00, 0x1f, 0x00, 0x00, 0x00, 0x00, 0x0c,
   0x06, 0x00, 0x00, 0x00, 0x00, 0x00, 0x00, 0x00, 0x00, 0xe0, 0x03, 0x00,
   0x00, 0x00, 0x00, 0x18, 0x04, 0x00, 0x00, 0x00, 0x00, 0x00, 0x00, 0x00,
   0x00, 0x7c, 0x00, 0x00, 0x00, 0x00, 0x00, 0x18, 0x0c, 0x00, 0x00, 0x00,
   0x00, 0x00, 0x00, 0x00, 0x80, 0x1f, 0x00, 0x00, 0x00, 0x00, 0x00, 0x18,
   0x08, 0x00, 0x00, 0x00, 0x00, 0x00, 0x00, 0x00, 0xe0, 0x03, 0x00, 0x00,
   0x00, 0x00, 0x00, 0x30, 0x18, 0x00, 0x00, 0x00, 0x00, 0x00, 0x00, 0x00,
   0x7c, 0x00, 0x00, 0x00, 0x00, 0x00, 0x00, 0x30, 0x18, 0x00, 0x00, 0x00,
   0x00, 0x00, 0x00, 0x80, 0x0f, 0x00, 0x00, 0x00, 0x00, 0x00, 0x00, 0x60,
   0x10, 0x00, 0x00, 0x00, 0x00, 0x00, 0x00, 0xf0, 0x01, 0x00, 0x00, 0x00,
   0x00, 0x00, 0x00, 0x60, 0x30, 0x00, 0x00, 0x00, 0x00, 0x00, 0x00, 0x3e,
   0x00, 0x00, 0x00, 0x00, 0x00, 0x00, 0x00, 0x40, 0x20, 0x00, 0x00, 0x00,
   0x00, 0x00, 0xc0, 0x07, 0x00, 0x00, 0x00, 0x00, 0x00, 0x00, 0x00, 0xc0,
   0x60, 0x00, 0x00, 0x00, 0x00, 0x00, 0xf8, 0x00, 0x00, 0x00, 0x00, 0x00,
   0x00, 0x00, 0x00, 0xc0, 0x40, 0x00, 0x00, 0x00, 0x00, 0x00, 0x3f, 0x00,
   0x00, 0x00, 0x00, 0x00, 0x38, 0x00, 0x00, 0x80, 0xc1, 0x00, 0x00, 0x00,
   0x00, 0xc0, 0x07, 0x00, 0x00, 0x00, 0x00, 0x00, 0xfc, 0x00, 0x00, 0x80,
   0xc1, 0x00, 0x00, 0x00, 0x00, 0xf0, 0x00, 0x00, 0x00, 0x00, 0x00, 0x00,
   0xfe, 0x01, 0x00, 0x00, 0x83, 0x00, 0x00, 0x00, 0x00, 0x38, 0x00, 0x00,
   0x00, 0x00, 0x00, 0x00, 0xff, 0x03, 0x00, 0x00, 0x83, 0x01, 0x00, 0x00,
   0x00, 0x1c, 0x00, 0x00, 0x00, 0x00, 0x00, 0x00, 0xff, 0x03, 0x00, 0x00,
   0x03, 0x01, 0x00, 0x00, 0x00, 0x0c, 0x00, 0x00, 0x00, 0x00, 0x00, 0x00,
   0xff, 0x07, 0x00, 0x00, 0x06, 0x03, 0x00, 0x00, 0x00, 0x06, 0x00, 0x00,
   0x00, 0x00, 0x00, 0x00, 0xff, 0x07, 0x00, 0x00, 0x06, 0x03, 0x00, 0x00,
   0x08, 0x02, 0x00, 0x00, 0x00, 0x00, 0x00, 0x00, 0xff, 0x07, 0x00, 0x00,
   0x0c, 0x02, 0x00, 0x00, 0x08, 0x03, 0x00, 0x00, 0x00, 0x00, 0x00, 0x00,
   0xff, 0x0f, 0x00, 0x00, 0x0c, 0x06, 0x00, 0x00, 0x08, 0x03, 0x00, 0x00,
   0x00, 0x00, 0x00, 0x00, 0xfe, 0x0f, 0x00, 0x00, 0x18, 0x04, 0x00, 0x00,
   0x08, 0x03, 0x00, 0x00, 0x00, 0x00, 0x00, 0x00, 0xfe, 0x1f, 0x00, 0x00,
   0x18, 0x0c, 0x00, 0x00, 0x08, 0x03, 0x00, 0x00, 0x00, 0x07, 0x00, 0x00,
   0xfc, 0x1f, 0x00, 0x00, 0x18, 0x0c, 0x00, 0x00, 0x08, 0x03, 0x00, 0x00,
   0x80, 0x1f, 0x00, 0x00, 0xfc, 0x1f, 0x00, 0x00, 0x30, 0x18, 0x00, 0x00,
   0x18, 0x02, 0x00, 0x00, 0xc0, 0x3f, 0x00, 0x00, 0xfc, 0x3f, 0x00, 0x00,
   0x30, 0x18, 0x00, 0x00, 0x18, 0x06, 0x00, 0x00, 0xe0, 0x7f, 0x00, 0x00,
   0xf8, 0x3f, 0x00, 0x00, 0x60, 0x10, 0x00, 0x00, 0x18, 0x06, 0x00, 0x00,
   0xe0, 0x7f, 0x00, 0x00, 0xf8, 0x7f, 0x00, 0x00, 0x60, 0x30, 0x00, 0x00,
   0x38, 0x0c, 0x00, 0x00, 0xf0, 0x7f, 0x00, 0x00, 0xf0, 0x7f, 0x00, 0x00,
   0xe0, 0x20, 0x00, 0x00, 0x30, 0x0c, 0x00, 0x00, 0xe0, 0xff, 0x00, 0x00,
   0xf0, 0x7f, 0x00, 0x00, 0xc0, 0x78, 0x00, 0x00, 0x70, 0x08, 0x00, 0x00,
   0xe0, 0xff, 0x00, 0x00, 0xf0, 0xff, 0x00, 0x00, 0xc0, 0x7c, 0x00, 0x00,
   0x70, 0x18, 0x00, 0x00, 0xe0, 0xff, 0x01, 0x00, 0xf0, 0xff, 0x00, 0x00,
   0x80, 0xfd, 0x00, 0x00, 0x60, 0x3f, 0x00, 0x00, 0xc0, 0xff, 0x01, 0x00,
   0xfc, 0xff, 0x01, 0x00, 0x80, 0xf9, 0x00, 0x00, 0xe0, 0x3f, 0x00, 0x00,
   0xc0, 0xff, 0x01, 0x80, 0xff, 0xff, 0x01, 0x00, 0x80, 0xfb, 0x00, 0x00,
   0xc0, 0x7f, 0x00, 0x00, 0xc0, 0xff, 0x03, 0xe0, 0xff, 0xff, 0x03, 0x00,
   0x00, 0xf3, 0x01, 0x00, 0xc0, 0x7f, 0x00, 0x00, 0x80, 0xff, 0x03, 0xfc,
   0xff, 0xff, 0x03, 0x00, 0x00, 0xf3, 0x01, 0x00, 0xc0, 0x7f, 0x00, 0x00,
   0x80, 0xff, 0x07, 0xff, 0xff, 0xff, 0x03, 0x00, 0x00, 0xf6, 0x03, 0x00,
   0x80, 0xff, 0x00, 0x00, 0x00, 0xff, 0xe7, 0xff, 0xff, 0xff, 0x07, 0x00,
   0x00, 0xe6, 0x03, 0x00, 0x80, 0xff, 0x00, 0x00, 0x00, 0xff, 0xff, 0xff,
   0xff, 0xff, 0x07, 0x00, 0x00, 0xec, 0x07, 0x00, 0x00, 0xff, 0x01, 0x00,
   0x00, 0xff, 0xff, 0xff, 0xff, 0xff, 0x0f, 0x00, 0x00, 0xcc, 0x07, 0x00,
   0x00, 0xff, 0x01, 0x00, 0x00, 0xfe, 0xff, 0xff, 0x7f, 0xfe, 0x0f, 0x00,
   0x00, 0xdc, 0x07, 0x00, 0x00, 0xff, 0x01, 0x00, 0x00, 0xfe, 0xff, 0xff,
   0x1f, 0xfe, 0x0f, 0x00, 0x00, 0xd8, 0x0f, 0x00, 0x00, 0xfe, 0x03, 0x00,
   0x00, 0xfc, 0xff, 0xff, 0x03, 0xfe, 0x1f, 0x00, 0x00, 0x98, 0x0f, 0x00,
   0x00, 0xfe, 0x03, 0x00, 0x00, 0xfc, 0xff, 0xff, 0x00, 0xfc, 0x1f, 0x00,
   0x00, 0xb0, 0x1f, 0x00, 0x00, 0xfc, 0x07, 0x00, 0x00, 0xf8, 0xff, 0x1f,
   0x00, 0xfc, 0x3f, 0x00, 0x00, 0x30, 0x1f, 0x00, 0x00, 0xfc, 0x07, 0x00,
   0x00, 0xf8, 0xff, 0x07, 0x00, 0xfc, 0x3f, 0x00, 0x00, 0x70, 0x1f, 0x00,
   0x00, 0xfc, 0x07, 0x00, 0x00, 0xf8, 0xff, 0x00, 0x00, 0xf8, 0x7f, 0x00,
   0x00, 0x60, 0x3e, 0x00, 0x00, 0xf8, 0x0f, 0x00, 0x00, 0xf0, 0x7f, 0x00,
   0x00, 0xf8, 0x7f, 0x00, 0x00, 0xe0, 0x3e, 0x00, 0x00, 0xf8, 0x0f, 0x00,
   0x00, 0xf0, 0x7f, 0x00, 0x00, 0xf0, 0x7f, 0x00, 0x00, 0xf8, 0x7e, 0x00,
   0x00, 0xf0, 0x1f, 0x00, 0x00, 0xf0, 0xff, 0x00, 0x00, 0xf0, 0xff, 0x00,
   0x00, 0xfc, 0x7c, 0x00, 0x00, 0xf0, 0x1f, 0x00, 0x00, 0xe0, 0xff, 0x00,
   0x00, 0xf0, 0xff, 0x00, 0x00, 0xfe, 0xfd, 0x00, 0x00, 0xf0, 0x1f, 0x00,
   0x00, 0xe0, 0xff, 0x01, 0x00, 0xe0, 0xff, 0x00, 0x80, 0xff, 0xf9, 0x00,
   0x00, 0xe0, 0x3f, 0x00, 0x00, 0xc0, 0xff, 0x01, 0x00, 0xe0, 0xff, 0x00,
   0xc0, 0xff, 0xfb, 0x00, 0x00, 0xe0, 0x3f, 0x00, 0x00, 0xc0, 0xff, 0x03,
   0x00, 0xc0, 0x7f, 0x00, 0xe0, 0xff, 0xfb, 0x01, 0x00, 0xc0, 0x7f, 0x00,
   0x00, 0x80, 0xff, 0x03, 0x00, 0xc0, 0x7f, 0x00, 0xf8, 0xff, 0xf7, 0x01,
   0x00, 0xc0, 0x7f, 0x00, 0x00, 0x80, 0xff, 0x03, 0x00, 0x80, 0x3f, 0x00,
   0xfc, 0xff, 0xf7, 0x03, 0x00, 0xc0, 0x7f, 0x00, 0x00, 0x80, 0xff, 0x07,
   0x00, 0x00, 0x00, 0x00, 0xfe, 0xef, 0xe7, 0x03, 0x00, 0x80, 0xff, 0x00,
   0x00, 0x00, 0xff, 0x07, 0x00, 0x00, 0x00, 0x80, 0xff, 0xdf, 0xef, 0x07,
   0x00, 0x80, 0xff, 0x00, 0x00, 0x00, 0xff, 0x0f, 0x00, 0x00, 0x00, 0xc0,
   0xff, 0xdf, 0xef, 0x07, 0x00, 0x00, 0xff, 0x01, 0x00, 0x00, 0xff, 0x0f,
   0x00, 0x00, 0x00, 0xe0, 0xff, 0xcf, 0xcf, 0x07, 0x00, 0x00, 0xff, 0x01,
   0x00, 0x00, 0xfe, 0x1f, 0x00, 0x00, 0x00, 0xf0, 0x7f, 0xc3, 0xcf, 0x0f,
   0x00, 0x00, 0xff, 0x01, 0x00, 0x00, 0xfe, 0x1f, 0x00, 0x00, 0x00, 0xfc,
   0xff, 0xe0, 0xcf, 0x0f, 0x00, 0x00, 0xfe, 0x03, 0x00, 0x00, 0xfc, 0x1f,
   0x00, 0x00, 0x00, 0xfe, 0xff, 0xf9, 0xc7, 0x0f, 0x00, 0x00, 0xfe, 0x03,
   0x00, 0x00, 0xfc, 0x1f, 0x00, 0x00, 0x00, 0xff, 0xff, 0xff, 0xe7, 0x0f,
   0x00, 0x00, 0xfc, 0x07, 0x00, 0x00, 0xf8, 0x0f, 0x00, 0x00, 0xc0, 0xff,
   0xff, 0xff, 0xe7, 0x0f, 0x00, 0x00, 0xfc, 0x07, 0x00, 0x00, 0xf8, 0x07,
   0x00, 0x00, 0xe0, 0xff, 0xff, 0xff, 0xe3, 0x0f, 0x00, 0x00, 0xfc, 0x0f,
   0x00, 0x00, 0xf0, 0x03, 0x00, 0x00, 0xf0, 0xff, 0xff, 0xff, 0xf1, 0x0f,
   0x00, 0x00, 0xf8, 0x0f, 0x00, 0x00, 0x00, 0x00, 0x00, 0x00, 0xfc, 0xff,
   0xff, 0xff, 0xf8, 0x0f, 0x00, 0x00, 0xf8, 0x0f, 0x00, 0x00, 0x00, 0x00,
   0x00, 0x00, 0xfe, 0xff, 0xff, 0x3f, 0xfc, 0x0f, 0x00, 0x00, 0xf0, 0x1f,
   0x00, 0x00, 0x00, 0x00, 0x00, 0x00, 0xff, 0xff, 0xff, 0x07, 0xfe, 0x0f,
   0x00, 0x00, 0xf0, 0x1f, 0x00, 0x00, 0x00, 0x00, 0x00, 0xc0, 0xff, 0xff,
   0xff, 0x81, 0xff, 0x07, 0x00, 0x00, 0xf0, 0x3f, 0x00, 0x00, 0x00, 0x00,
   0x00, 0xe0, 0xff, 0xff, 0x3f, 0xe0, 0xff, 0x07, 0x00, 0x00, 0xe0, 0x3f,
   0x00, 0x00, 0x00, 0x00, 0x00, 0xf0, 0xff, 0xff, 0x07, 0xfc, 0xff, 0x07,
   0x00, 0x00, 0xe0, 0x3f, 0x00, 0x00, 0x00, 0x00, 0x00, 0xfc, 0xff, 0xff,
   0x80, 0xff, 0xff, 0x03, 0x00, 0x00, 0xc0, 0x7f, 0x00, 0x00, 0x00, 0x00,
   0x00, 0xfe, 0xff, 0x1f, 0xf0, 0xff, 0xff, 0x01, 0x00, 0x00, 0xc0, 0x7f,
   0x00, 0x00, 0x00, 0x00, 0x00, 0xff, 0xff, 0x07, 0xfe, 0xff, 0xff, 0x00,
   0x00, 0x00, 0xc0, 0x3f, 0x00, 0x00, 0x00, 0x00, 0xc0, 0xff, 0xff, 0xc0,
   0xff, 0xff, 0x7f, 0x00, 0x00, 0x00, 0x80, 0xbf, 0x00, 0x00, 0x00, 0x00,
   0xe0, 0xff, 0x1f, 0xf0, 0xff, 0xff, 0x3f, 0x00, 0x00, 0x00, 0x80, 0xdf,
   0x00, 0x3c, 0x00, 0x00, 0xf0, 0xff, 0x03, 0xfe, 0xff, 0xff, 0x0f, 0x00,
   0x00, 0x00, 0x00, 0xcf, 0x00, 0x7e, 0x00, 0x00, 0xfc, 0x7f, 0xc0, 0xff,
   0xff, 0xff, 0x01, 0x00, 0x00, 0x00, 0x00, 0x8f, 0x01, 0x7e, 0x00, 0x00,
   0xfe, 0x0f, 0xf8, 0xff, 0xff, 0x3f, 0x00, 0x00, 0x00, 0x00, 0x00, 0x97,
   0x01, 0x3e, 0x00, 0x00, 0xff, 0x03, 0xff, 0xff, 0xff, 0x0f, 0x00, 0x00,
   0x00, 0x00, 0x00, 0x9e, 0x03, 0x00, 0x00, 0xc0, 0x7f, 0xc0, 0xff, 0xff,
   0xff, 0x01, 0x00, 0x00, 0x00, 0x00, 0x00, 0x3e, 0x03, 0x00, 0x00, 0xe0,
   0x0f, 0xf8, 0xff, 0xff, 0x3f, 0x00, 0x00, 0x00, 0x00, 0x00, 0x00, 0x3c,
   0x03, 0x00, 0x00, 0xf8, 0x01, 0xff, 0xff, 0xff, 0x07, 0x00, 0x00, 0x00,
   0x00, 0x00, 0x00, 0x7c, 0x06, 0x00, 0x00, 0x3f, 0xe0, 0xff, 0xff, 0xff,
   0x01, 0x00, 0x00, 0x00, 0x00, 0x00, 0x00, 0x7c, 0x0e, 0x00, 0xe0, 0x0f,
   0xfc, 0xff, 0xff, 0x3f, 0x00, 0x00, 0x00, 0x00, 0x00, 0x00, 0x00, 0xf8,
   0x3c, 0x00, 0xfc, 0x01, 0xff, 0xff, 0xff, 0x07, 0x00, 0x00, 0x00, 0x00,
   0x00, 0x00, 0x00, 0xf8, 0x78, 0x80, 0x3f, 0xe0, 0xff, 0xff, 0xff, 0x00,
   0x00, 0x00, 0x00, 0x00, 0x00, 0x00, 0x00, 0xf0, 0xe1, 0xff, 0x07, 0xfc,
   0xff, 0xff, 0x1f, 0x00, 0x00, 0x00, 0x00, 0x00, 0x00, 0x00, 0x00, 0xf0,
   0x81, 0xff, 0x80, 0xff, 0xff, 0xff, 0x07, 0x00, 0x00, 0x00, 0x00, 0x00,
   0x00, 0x00, 0x00, 0xf0, 0x03, 0x00, 0xf0, 0xff, 0xff, 0xff, 0x00, 0x00,
   0x00, 0x00, 0x00, 0x00, 0x00, 0x00, 0x00, 0xe0, 0x07, 0x00, 0xfe, 0xff,
   0xff, 0x1f, 0x00, 0x00, 0x00, 0x00, 0x00, 0x00, 0x00, 0x00, 0x00, 0xe0,
   0x0f, 0x00, 0xff, 0xff, 0xff, 0x03, 0x00, 0x00, 0x00, 0x00, 0x00, 0x00,
   0x00, 0x00, 0x00, 0xc0, 0x3f, 0xc0, 0xff, 0xff, 0xff, 0x00, 0x00, 0x00,
   0x00, 0x00, 0x00, 0x00, 0x00, 0x00, 0x00, 0xc0, 0xff, 0xff, 0xff, 0xff,
   0x1f, 0x00, 0x00, 0x00, 0x00, 0x00, 0x00, 0x00, 0x00, 0x00, 0x00, 0xc0,
   0xff, 0xff, 0xff, 0xff, 0x03, 0x00, 0x00, 0x00, 0x00, 0x00, 0x00, 0x00,
   0x00, 0x00, 0x00, 0x80, 0xff, 0xff, 0xff, 0x7f, 0x00, 0x00, 0x00, 0x00,
   0x00, 0x00, 0x00, 0x00, 0x00, 0x00, 0x00, 0x00, 0xff, 0xff, 0xff, 0x1f,
   0x00, 0x00, 0x00, 0x00, 0x00, 0x00, 0x00, 0x00, 0x00, 0x00, 0x00, 0x00,
   0xff, 0xff, 0xff, 0x03, 0x00, 0x00, 0x00, 0x00, 0x00, 0x00, 0x00, 0x00,
   0x00, 0x00, 0x00, 0x00, 0xfe, 0xff, 0x7f, 0x00, 0x00, 0x00, 0x00, 0x00,
   0x00, 0x00, 0x00, 0x00, 0x00, 0x00, 0x00, 0x00, 0xf8, 0xff, 0x0f, 0x00,
   0x00, 0x00, 0x00, 0x00, 0x00, 0x00, 0x00, 0x00, 0x00, 0x00, 0x00, 0x00,
   0xf0, 0xff, 0x01, 0x00, 0x00, 0x00, 0x00, 0x00, 0x00, 0x00, 0x00, 0x00,
   0x00, 0x00, 0x00, 0x00, 0x80, 0x3f, 0x00, 0x00, 0x00, 0x00, 0x00, 0x00,
   0x00, 0x00, 0x00, 0x00, 0x00, 0x00, 0x00, 0x00, 0x00, 0x00, 0x00, 0x00,
   0x00, 0x00, 0x00, 0x00, 0x00, 0x00, 0x00, 0x00, 0x00, 0x00, 0x00, 0x00,
   0x00, 0x00, 0x00, 0x00, 0x00, 0x00, 0x00, 0x00, 0x00, 0x00, 0x00, 0x00 };
