#define pointer_mask_width 11
#define pointer_mask_height 18
static unsigned char pointer_mask_bits[] = {
   0x01, 0x00, 0x03, 0x00, 0x07, 0x00, 0x0f, 0x00, 0x1f, 0x00, 0x3f, 0x00,
   0x7f, 0x00, 0xff, 0x00, 0xff, 0x01, 0xff, 0x03, 0xff, 0x07, 0xff, 0x03,
   0xff, 0x00, 0xff, 0x00, 0xf7, 0x01, 0xe3, 0x01, 0xe1, 0x01, 0xc0, 0x00 };
