#define pointer_width 11
#define pointer_height 18
static unsigned char pointer_bits[] = {
   0x01, 0x00, 0x03, 0x00, 0x05, 0x00, 0x09, 0x00, 0x11, 0x00, 0x21, 0x00,
   0x41, 0x00, 0x81, 0x00, 0x01, 0x01, 0x01, 0x02, 0x01, 0x04, 0x01, 0x03,
   0x81, 0x00, 0x89, 0x00, 0x15, 0x01, 0x23, 0x01, 0x21, 0x01, 0xc0, 0x00 };
