<?xml version="1.0" encoding="UTF-8" standalone="no"?>
<!-- Created with Inkscape (http://www.inkscape.org/) -->

<svg
   xmlns:dc="http://purl.org/dc/elements/1.1/"
   xmlns:cc="http://creativecommons.org/ns#"
   xmlns:rdf="http://www.w3.org/1999/02/22-rdf-syntax-ns#"
   xmlns:svg="http://www.w3.org/2000/svg"
   xmlns="http://www.w3.org/2000/svg"
   xmlns:xlink="http://www.w3.org/1999/xlink"
   xmlns:sodipodi="http://sodipodi.sourceforge.net/DTD/sodipodi-0.dtd"
   xmlns:inkscape="http://www.inkscape.org/namespaces/inkscape"
   id="svg3437"
   version="1.1"
   inkscape:version="0.48.4 r9939"
   width="259.225"
   height="231.9"
   xml:space="preserve"
   sodipodi:docname="HelenOS.svg"><metadata
     id="metadata3443"><rdf:RDF><cc:Work
         rdf:about=""><dc:format>image/svg+xml</dc:format><dc:type
           rdf:resource="http://purl.org/dc/dcmitype/StillImage" /><dc:title></dc:title></cc:Work></rdf:RDF></metadata><defs
     id="defs3441"><linearGradient
       id="linearGradient7224"
       inkscape:collect="always"><stop
         id="stop7226"
         offset="0"
         style="stop-color:#f4f7f9;stop-opacity:1" /><stop
         id="stop7228"
         offset="1"
         style="stop-color:#cad0d4;stop-opacity:1" /></linearGradient><linearGradient
       id="linearGradient7208"><stop
         style="stop-color:#ebeef1;stop-opacity:1;"
         offset="0"
         id="stop7210" /><stop
         style="stop-color:#cad0d4;stop-opacity:1"
         offset="1"
         id="stop7212" /></linearGradient><clipPath
       clipPathUnits="userSpaceOnUse"
       id="clipPath3475"><path
         d="m 816.738,689.309 c -41.34,0 -80.386,25.441 -96.019,66.679 L 477.898,1395.8 c -4.722,12.45 -6.89,25.24 -6.765,37.79 0.418,40.99 25.34,79.39 65.719,94.69 l 635.128,241.02 c 11.89,4.52 24.1,6.66 36.11,6.66 41.36,0 80.39,-25.4 96.01,-66.69 l 242.82,-639.72 c 4.72,-12.46 6.89,-25.27 6.76,-37.84 -0.41,-41.026 -25.35,-79.433 -65.8,-94.73 L 852.75,695.961 c -11.848,-4.512 -24.031,-6.652 -36.012,-6.652"
         id="path3477" /></clipPath><linearGradient
       x1="0"
       y1="0"
       x2="1"
       y2="0"
       gradientUnits="userSpaceOnUse"
       gradientTransform="matrix(39.659,-85.0491,-85.0491,-39.659,81.4102,165.789)"
       spreadMethod="pad"
       id="linearGradient3479"><stop
         style="stop-opacity:1;stop-color:#ffffff"
         offset="0"
         id="stop3481" /><stop
         style="stop-opacity:1;stop-color:#cac9ca"
         offset="1"
         id="stop3483" /></linearGradient><filter
       id="filter4590"
       inkscape:label="Inner Shadow"
       inkscape:menu="Shadows and Glows"
       inkscape:menu-tooltip="Adds a colorizable drop shadow inside"
       color-interpolation-filters="sRGB"><feGaussianBlur
         id="feGaussianBlur4592"
         stdDeviation="4"
         result="result8" /><feOffset
         id="feOffset4594"
         dx="4"
         dy="4"
         result="result11" /><feComposite
         id="feComposite4596"
         in2="result11"
         result="result6"
         in="SourceGraphic"
         operator="in" /><feFlood
         id="feFlood4598"
         result="result10"
         in="result6"
         flood-opacity="1"
         flood-color="rgb(76,76,76)" /><feBlend
         id="feBlend4600"
         in2="result10"
         mode="normal"
         in="result6"
         result="result12" /><feComposite
         id="feComposite4602"
         in2="SourceGraphic"
         result="result2"
         operator="in" /></filter><filter
       id="filter4738"
       style="color-interpolation-filters:sRGB;"
       inkscape:label="Drop Shadow"><feFlood
         id="feFlood4740"
         flood-opacity="0.8909657320872274"
         flood-color="rgb(0,0,0)"
         result="flood" /><feComposite
         id="feComposite4742"
         in2="SourceGraphic"
         in="flood"
         operator="in"
         result="composite1" /><feGaussianBlur
         id="feGaussianBlur4744"
         in="composite"
         stdDeviation="2.5738461538461532"
         result="blur" /><feOffset
         id="feOffset4746"
         dx="0"
         dy="2"
         result="offset" /><feComposite
         id="feComposite4748"
         in2="offset"
         in="SourceGraphic"
         operator="over"
         result="composite2" /></filter><filter
       id="filter4768"
       inkscape:label="Drop Shadow"
       inkscape:menu="Shadows and Glows"
       inkscape:menu-tooltip="Adds a colorizable drop shadow inside"
       color-interpolation-filters="sRGB"
       style="color-interpolation-filters:sRGB;"><feGaussianBlur
         id="feGaussianBlur4770"
         stdDeviation="1"
         result="result8" /><feOffset
         id="feOffset4772"
         dx="1"
         dy="1"
         result="result11" /><feComposite
         id="feComposite4774"
         in2="result11"
         result="result6"
         in="SourceGraphic"
         operator="in" /><feFlood
         id="feFlood4776"
         result="result10"
         in="result6"
         flood-opacity="1"
         flood-color="rgb(60,62,63)" /><feBlend
         id="feBlend4778"
         in2="result10"
         mode="normal"
         in="result6"
         result="result12" /><feComposite
         id="feComposite4780"
         in2="SourceGraphic"
         result="fbSourceGraphic"
         operator="in" /><feColorMatrix
         result="fbSourceGraphicAlpha"
         in="fbSourceGraphic"
         values="0 0 0 -1 0 0 0 0 -1 0 0 0 0 -1 0 0 0 0 1 0"
         id="feColorMatrix4924" /><feFlood
         id="feFlood4926"
         flood-opacity="0.90537634408602152"
         flood-color="rgb(255,255,255)"
         result="flood"
         in="fbSourceGraphic" /><feComposite
         id="feComposite4928"
         in2="fbSourceGraphic"
         in="flood"
         operator="in"
         result="composite1" /><feGaussianBlur
         id="feGaussianBlur4930"
         in="composite"
         stdDeviation="0.24978417266187047"
         result="blur" /><feOffset
         id="feOffset4932"
         dx="1"
         dy="1"
         result="offset" /><feComposite
         id="feComposite4934"
         in2="offset"
         in="fbSourceGraphic"
         operator="over"
         result="composite2" /></filter><linearGradient
       inkscape:collect="always"
       xlink:href="#linearGradient7208"
       id="linearGradient7214"
       x1="104.32044"
       y1="18.753582"
       x2="150.06894"
       y2="128.61929"
       gradientUnits="userSpaceOnUse" /><linearGradient
       inkscape:collect="always"
       xlink:href="#linearGradient7224"
       id="linearGradient7222"
       x1="108.13281"
       y1="25.685173"
       x2="146.25656"
       y2="122.38086"
       gradientUnits="userSpaceOnUse" /></defs><sodipodi:namedview
     pagecolor="#ffffff"
     bordercolor="#666666"
     borderopacity="1"
     objecttolerance="10"
     gridtolerance="10"
     guidetolerance="10"
     inkscape:pageopacity="0"
     inkscape:pageshadow="2"
     inkscape:window-width="1276"
     inkscape:window-height="761"
     id="namedview3439"
     showgrid="false"
     inkscape:zoom="2.259464"
     inkscape:cx="110.05942"
     inkscape:cy="117.36032"
     inkscape:window-x="0"
     inkscape:window-y="18"
     inkscape:window-maximized="0"
     inkscape:current-layer="layer3"
     showguides="true"
     inkscape:guide-bbox="true" /><g
     inkscape:groupmode="layer"
     id="layer2"
     inkscape:label="Logo"
     style="display:inline"
     sodipodi:insensitive="true"><g
       id="g4604"
       style="filter:url(#filter4738)"><g
         id="g7230"><path
           sodipodi:nodetypes="sssssssss"
           inkscape:connector-curvature="0"
           id="path5035"
           d="M 144.06902,10.045066 61.198812,38.278932 C 53.834625,40.787909 45.731809,50.10879 50.057881,60.713409 L 84.548982,145.2624 c 2.357198,5.77826 9.755299,11.05606 19.840018,7.47815 l 92.48498,-32.81233 c 4.92096,-1.74588 11.69893,-8.51248 7.47816,-18.46647 L 167.72442,15.081378 c -3.72435,-8.7832514 -14.95083,-8.0019572 -23.6554,-5.036312 z"
           style="fill:#4f5051;fill-opacity:1;stroke:none" /><rect
           y="48.708691"
           x="48.849281"
           height="6.2556591"
           width="6.8167043"
           id="rect5037"
           style="fill:#4f5051;fill-opacity:1;stroke:none" /><rect
           y="101.55563"
           x="199.60468"
           height="5.889843"
           width="6.0749969"
           id="rect5039"
           style="fill:#4f5051;fill-opacity:1;stroke:none" /></g><path
         sodipodi:nodetypes="sssssssss"
         inkscape:connector-curvature="0"
         id="path4485"
         d="M 144.06902,4.0450664 61.198812,32.278932 C 53.834625,34.787909 45.731809,44.10879 50.057881,54.713409 L 84.548982,139.2624 c 2.357198,5.77826 9.755299,11.05606 19.840018,7.47815 l 92.48498,-32.81233 c 4.92096,-1.74588 11.69893,-8.51248 7.47816,-18.466475 L 167.72442,9.0813775 C 164.00007,0.29812656 152.77359,1.0794208 144.06902,4.0450664 z"
         style="fill:url(#linearGradient7214);fill-opacity:1;stroke:none" /><path
         sodipodi:type="inkscape:offset"
         inkscape:radius="-6.7012396"
         inkscape:original="M 157.75 2.15625 C 153.38977 1.6243729 148.41478 2.5484272 144.0625 4.03125 L 61.1875 32.28125 C 53.823313 34.790227 45.736428 44.114131 50.0625 54.71875 L 84.5625 139.25 C 86.919698 145.02826 94.290281 150.32791 104.375 146.75 L 196.875 113.9375 C 201.79596 112.19162 208.56452 105.42275 204.34375 95.46875 L 167.71875 9.09375 C 165.85657 4.7021245 162.11023 2.6881271 157.75 2.15625 z "
         style="fill:url(#linearGradient7222);fill-opacity:1;stroke:none"
         id="path7206"
         d="m 156.9375,8.8125 c -2.82602,-0.3447281 -7.03762,0.3083377 -10.71875,1.5625 l -82.875,28.25 c -1.992244,0.678757 -4.857585,2.803885 -6.375,5.3125 -1.517415,2.508615 -2.039469,4.935882 -0.6875,8.25 l 34.5,84.53125 c 1.053105,2.5815 4.193953,6.25539 11.34375,3.71875 l 92.5,-32.8125 c 0.80096,-0.28417 2.6915,-1.58104 3.5625,-3.125 0.871,-1.54396 1.39467,-3.11714 0,-6.40625 l -36.625,-86.375 c -0.8886,-2.0956068 -1.82512,-2.5647104 -4.625,-2.90625 z" /><g
         style="filter:url(#filter4590)"
         id="g4542"><path
           inkscape:connector-curvature="0"
           id="path4473"
           d="m 135.03125,34.78125 a 6.750675,6.750675 0 0 0 -6.21875,9.375 l 6.4375,15.9375 -23.78125,9.5625 L 105.03125,53.75 A 6.750675,6.750675 0 0 0 98.75,49.4375 6.750675,6.750675 0 0 0 92.53125,58.8125 L 110,102.03125 a 6.7576093,6.7576093 0 1 0 12.53125,-5.0625 l -6.5625,-16.1875 23.78125,-9.5625 6.53125,16.15625 a 6.7576093,6.7576093 0 1 0 12.53125,-5.0625 l -17.5,-43.21875 a 6.750675,6.750675 0 0 0 -6.28125,-4.3125 z"
           style="font-size:medium;font-style:normal;font-variant:normal;font-weight:normal;font-stretch:normal;text-indent:0;text-align:start;text-decoration:none;line-height:normal;letter-spacing:normal;word-spacing:normal;text-transform:none;direction:ltr;block-progression:tb;writing-mode:lr-tb;text-anchor:start;baseline-shift:baseline;color:#000000;fill:#c3c2c4;fill-opacity:1;stroke:none;stroke-width:13.5;marker:none;visibility:visible;display:inline;overflow:visible;enable-background:accumulate;font-family:Sans;-inkscape-font-specification:Sans" /></g><g
         id="g4750"
         style="filter:url(#filter4768)"><path
           sodipodi:type="arc"
           style="fill:#c3c2c4;fill-opacity:1;stroke:none"
           id="path4479"
           sodipodi:cx="102.06332"
           sodipodi:cy="125.22211"
           sodipodi:rx="3.25734"
           sodipodi:ry="3.1216176"
           d="m 105.32066,125.22211 a 3.25734,3.1216176 0 1 1 -6.514684,0 3.25734,3.1216176 0 1 1 6.514684,0 z"
           transform="matrix(0.98880313,-0.44393908,0.44393908,0.98880313,-54.312475,46.576269)" /><path
           transform="matrix(0.98880313,-0.44393908,0.44393908,0.98880313,27.39247,17.938822)"
           d="m 105.32066,125.22211 a 3.25734,3.1216176 0 1 1 -6.514684,0 3.25734,3.1216176 0 1 1 6.514684,0 z"
           sodipodi:ry="3.1216176"
           sodipodi:rx="3.25734"
           sodipodi:cy="125.22211"
           sodipodi:cx="102.06332"
           id="path4481"
           style="fill:#c3c2c4;fill-opacity:1;stroke:none"
           sodipodi:type="arc" /></g><path
         style="fill:#4d4d4d;fill-opacity:1;stroke:none"
         d="m 155.84375,8.53125 c -2.7841,-0.086304 -6.45076,0.5847419 -9.6875,1.6875 l -82.875,28.25 c -2.037566,0.694198 -4.927624,2.827186 -6.46875,5.375 -1.541126,2.547814 -2.092472,5.038809 -0.71875,8.40625 l 34.5,84.53125 c 0.443193,1.08641 1.273856,2.34335 2.5625,3.28125 -0.970342,-0.86582 -1.626075,-1.89589 -2,-2.8125 l -34.5,-84.53125 C 55.28948,49.368352 55.840427,46.91198 57.375,44.375 c 1.530152,-2.529672 4.421979,-4.657063 6.4375,-5.34375 l 82.875,-28.25 c 2.76829,-0.9431583 5.83842,-1.5525003 8.40625,-1.65625 0.85594,-0.034583 1.66293,-0.024361 2.375,0.0625 1.41789,0.1729592 2.35949,0.444633 2.89232,0.8024892 0.1708,0.1147148 0.5204,0.2465578 0.67018,0.3850108 -0.80331,-1.1222334 -1.88419,-1.4842817 -4.0625,-1.75 -0.3584,-0.043718 -0.72727,-0.081421 -1.125,-0.09375 z"
         id="path5113"
         inkscape:connector-curvature="0"
         sodipodi:nodetypes="sccscccccsccssscss" /><path
         style="fill:#4d4d4d;fill-opacity:1;stroke:none"
         d="m 158.375,8.84375 c 0.4119,0.085094 0.77418,0.1866234 1.09375,0.3125 -0.3182,-0.1277152 -0.68149,-0.2278629 -1.09375,-0.3125 z m -8.34375,0.3125 c -0.52306,0.1108753 -1.04032,0.2382306 -1.5625,0.375 0.51786,-0.1361952 1.04381,-0.264064 1.5625,-0.375 z m 10.01745,0.6962932 c 0.32528,0.2630278 0.36217,0.4773388 0.5138,0.8349568 l 36.625,86.375 c 0.70023,1.651396 0.93765,2.884086 0.875,3.875 -0.0626,0.99073 -0.43213,1.74619 -0.875,2.53125 -0.43241,0.76651 -1.09694,1.47237 -1.78125,2.03125 -0.68401,0.55863 -1.39617,0.98837 -1.78125,1.125 l -92.5,32.8125 c -3.582155,1.2709 -6.124046,0.97982 -7.9375,0.0625 -0.396515,-0.20058 -0.950398,-0.67555 -1.276291,-1.09315 -0.325894,-0.4176 -0.30025,-0.45646 -0.799278,-1.15258 0.328593,0.8104 0.876055,1.6176 1.489631,2.26917 0.330647,0.25808 0.621581,0.36703 1.023438,0.57031 1.841002,0.93126 4.429643,1.2153 8.03125,-0.0625 l 92.5,-32.8125 c 0.40826,-0.14485 1.1207,-0.56001 1.8125,-1.125 0.6918,-0.56499 1.37094,-1.27978 1.8125,-2.0625 0.44554,-0.78978 0.81102,-1.58146 0.875,-2.59375 0.064,-1.01229 -0.17077,-2.245431 -0.875,-3.90625 l -36.625,-86.375 c -0.20218,-0.476821 -0.20571,-0.799924 -0.43359,-1.121094 -0.008,-0.0048 -0.1992,-0.1554565 -0.207,-0.160156 -0.12453,-0.07439 -0.59028,-0.1518513 -0.73061,-0.2146941 z"
         id="path5135"
         inkscape:connector-curvature="0"
         sodipodi:nodetypes="ccccccccscssccczccsccsscsscccc" /><path
         style="fill:#f9f9f9;fill-opacity:1;stroke:none"
         d="m 160.66086,9.9356565 c 0.29941,0.4813045 0.18296,0.5641445 0.49539,1.3009705 l 36.625,86.375 c 0.70423,1.660819 0.93898,2.893963 0.875,3.906253 -0.064,1.01229 -0.42946,1.80397 -0.875,2.59375 -0.44156,0.78272 -1.1207,1.49751 -1.8125,2.0625 -0.6918,0.56499 -1.40424,0.98015 -1.8125,1.125 l -92.5,32.8125 c -3.601607,1.2778 -6.214641,1.04049 -8.03125,0.0625 -0.901764,-0.48547 -1.55545,-1.09494 -2.128906,-1.77734 1.601388,2.27579 4.81824,4.36105 10.691406,2.27734 l 92.5,-32.8125 c 0.84547,-0.29996 2.76088,-1.63159 3.65625,-3.21875 0.89537,-1.58716 1.41689,-3.2294 0,-6.562503 L 161.59766,11.638971 c -0.44229,-1.040443 -0.41497,-1.174048 -0.9368,-1.7033145 z"
         id="path5120"
         inkscape:connector-curvature="0"
         sodipodi:nodetypes="csscssccscccsssc" /><path
         style="fill:#323232;fill-opacity:1;stroke:none"
         d="m 78.322398,125.81023 5.729153,-7.0905 L 60.890826,62.330641 52.859,63.151994 z"
         id="path4487"
         inkscape:connector-curvature="0"
         sodipodi:nodetypes="ccccc" /><path
         sodipodi:nodetypes="ccccc"
         inkscape:connector-curvature="0"
         id="path4519"
         d="m 79.019887,125.55253 5.440835,-5.59341 -0.48766,-1.41355 -5.651067,7.26442 z"
         style="fill:#f9f9f9;stroke:none" /><path
         style="fill:#f9f9f9;fill-opacity:1;stroke:none"
         d="m 156.34375,9.09375 c -0.39775,-0.00909 -0.82203,0.013958 -1.25,0.03125 -2.56783,0.1037497 -5.63796,0.7130915 -8.40625,1.65625 l -82.875,28.25 c -2.015521,0.686687 -4.907348,2.814078 -6.4375,5.34375 -1.534573,2.53698 -2.08552,4.993352 -0.71875,8.34375 l 34.5,84.53125 c 0.280444,0.68746 1.163727,1.70758 1.329926,1.86437 0.166199,0.15679 0.344629,0.25227 1.076271,0.55429 -0.464587,-0.22276 -0.384832,-0.17168 -0.636666,-0.39913 -0.251834,-0.22745 -0.493954,-1.1277 -0.769531,-1.73823 L 57.65625,53 c -1.312012,-3.216169 -0.796136,-5.39098 0.6875,-7.84375 1.442449,-2.38468 4.316055,-4.466796 6.15625,-5.09375 l 82.875,-28.25 c 2.71949,-0.926532 5.75094,-1.555279 8.25,-1.65625 0.83773,-0.03385 1.48163,-0.112435 2.15419,-0.09388 1.29552,0.03574 2.14895,0.0066 2.38837,0.249611 0.23943,0.24297 0.49431,0.59618 0.49431,0.59618 0,0 -0.29527,-0.741854 -0.48319,-0.9422587 -0.18792,-0.200405 -0.2281,-0.2086143 -0.54154,-0.3339453 -0.31344,-0.1253311 -0.76625,-0.2734176 -2.16839,-0.444455 -0.35604,-0.04343 -0.72725,-0.08466 -1.125,-0.093752 z m -6.3125,0.0625 c -0.52306,0.1108753 -1.04032,0.2382306 -1.5625,0.375 0.51786,-0.1361952 1.04381,-0.264064 1.5625,-0.375 z"
         id="path5142"
         inkscape:connector-curvature="0"
         sodipodi:nodetypes="ssccscczczccsccsszczzssccc" /><path
         sodipodi:nodetypes="ccccc"
         inkscape:connector-curvature="0"
         id="path4521"
         d="m 59.978424,61.811457 -7.052525,-0.01903 -0.06697,1.359774 7.75195,-0.769753 z"
         style="fill:#000000;stroke:none" /></g></g><g
     inkscape:groupmode="layer"
     id="layer3"
     inkscape:label="Text"
     sodipodi:insensitive="true"
     style="display:inline"><path
       d="m 39.99308,164.63193 7.5825,0 0,56.12353 -7.5825,0 0,-26.18603 -29.312963,0 0,26.18603 -7.5820371,0 0,-56.12353 7.5820371,0 0,23.21487 29.312963,0 0,-23.21487"
       style="fill:#323232;fill-opacity:1;fill-rule:nonzero;stroke:none;display:inline"
       id="path3449"
       inkscape:connector-curvature="0" /><path
       d="m 82.48533,197.07093 c -0.234375,-3.59525 -1.172375,-6.5665 -2.96975,-8.834 -1.72025,-2.26613 -4.53425,-3.35988 -8.442375,-3.35988 -2.03275,0 -3.90825,0.54588 -5.6285,1.64113 -1.79775,1.17237 -3.2045,2.65775 -4.221125,4.61225 -1.016125,1.95412 -1.484875,3.90775 -1.484875,5.9405 l 22.746625,0 z m 6.566375,10.86475 c -0.234375,1.48625 -0.9385,3.28365 -2.110875,5.54976 -1.172375,2.26758 -2.892125,4.14405 -5.158625,5.62794 -1.328625,0.86084 -2.736375,1.56347 -4.299375,2.03222 -1.564,0.54736 -3.8305,0.78271 -6.80025,0.78271 -2.8145,0 -5.394125,-0.54785 -7.660625,-1.56396 -2.267125,-1.01611 -4.22125,-2.42236 -5.78475,-4.29883 -1.641625,-1.87598 -2.813875,-4.06494 -3.595625,-6.48734 -0.859375,-2.42375 -1.251,-5.15863 -1.251,-8.12988 0,-4.30025 0.704125,-8.2075 2.189,-11.64737 1.407125,-3.439 3.595125,-6.17538 6.48775,-8.13038 2.97075,-1.95225 6.6445,-2.96975 10.943875,-2.96975 2.892,0 5.471625,0.54738 7.73875,1.6425 2.1885,1.171 3.985875,2.73488 5.471625,4.76713 1.40675,2.03275 2.501,4.53425 3.28325,7.42625 0.703125,2.89262 1.09425,6.254 1.09425,10.00637 l -29.860375,0 c 0,4.29888 1.016125,7.58155 3.048875,9.92628 1.953625,2.34521 4.92425,3.51757 8.833,3.51757 1.563,0 2.96975,-0.23388 4.29825,-0.78125 1.2515,-0.54736 2.34575,-1.17236 3.28325,-2.03271 0.860375,-0.85986 1.642125,-1.71875 2.189,-2.73584 0.46925,-0.93755 0.703625,-1.79642 0.78175,-2.50142 l 6.878875,0"
       style="fill:#323232;fill-opacity:1;fill-rule:nonzero;stroke:none;display:inline"
       id="path3451"
       inkscape:connector-curvature="0" /><path
       d="m 94.186955,220.75546 6.878415,0 0,-56.12349 -6.878415,0 0,56.12349 z"
       style="fill:#323232;fill-opacity:1;fill-rule:nonzero;stroke:none;display:inline"
       id="path3453"
       inkscape:connector-curvature="0" /><path
       d="m 135.60559,197.07093 c -0.23375,-3.59525 -1.17125,-6.5665 -2.97,-8.834 -1.72,-2.26613 -4.53375,-3.35988 -8.44176,-3.35988 -2.03275,0 -3.90875,0.54588 -5.6285,1.64113 -1.79787,1.17237 -3.2045,2.65775 -4.22062,4.61225 -1.01663,1.95412 -1.48538,3.90775 -1.48538,5.9405 l 22.74626,0 z m 6.56625,10.86475 c -0.23375,1.48625 -0.9375,3.28365 -2.11,5.54976 -1.1725,2.26758 -2.8925,4.14405 -5.15875,5.62794 -1.33,0.86084 -2.73625,1.56347 -4.3,2.03222 -1.56375,0.54736 -3.83026,0.78271 -6.80038,0.78271 -2.814,0 -5.39363,-0.54785 -7.66025,-1.56396 -2.2675,-1.01611 -4.22113,-2.42236 -5.78513,-4.29883 -1.64112,-1.87598 -2.8135,-4.06494 -3.59512,-6.48734 -0.85988,-2.42375 -1.2505,-5.15863 -1.2505,-8.12988 0,-4.30025 0.70362,-8.2075 2.18837,-11.64737 1.40675,-3.439 3.59575,-6.17538 6.48838,-8.13038 2.96962,-1.95225 6.644,-2.96975 10.94337,-2.96975 2.89151,0 5.47126,0.54738 7.73876,1.6425 2.18875,1.171 3.98625,2.73488 5.47125,4.76713 1.4075,2.03275 2.50125,4.53425 3.28375,7.42625 0.7025,2.89262 1.09375,6.254 1.09375,10.00637 l -29.86001,0 c 0,4.29888 1.01563,7.58155 3.04838,9.92628 1.954,2.34521 4.92475,3.51757 8.833,3.51757 1.56337,0 2.97013,-0.23388 4.29863,-0.78125 1.25,-0.54736 2.345,-1.17236 3.28375,-2.03271 0.86,-0.85986 1.64125,-1.71875 2.18875,-2.73584 0.46875,-0.93755 0.70375,-1.79642 0.78125,-2.50142 l 6.87875,0"
       style="fill:#323232;fill-opacity:1;fill-rule:nonzero;stroke:none;display:inline"
       id="path3455"
       inkscape:connector-curvature="0" /><path
       d="m 180.52934,220.75546 -6.88,0 -0.0788,-25.16991 c 0,-3.7525 -0.625,-6.48737 -1.9525,-8.12987 -1.25125,-1.72025 -3.51875,-2.57863 -6.80125,-2.57863 -1.5625,0 -3.205,0.38963 -4.84625,1.25 -1.64125,0.78225 -3.04875,2.1885 -4.22125,4.22113 -1.1725,2.03225 -1.71875,4.76762 -1.71875,8.13 l 0,22.27728 -6.87875,0 0,-40.88091 6.48625,0 0,5.78375 0.1575,0 c 1.1725,-1.79887 2.81375,-3.36137 4.76875,-4.84625 1.95375,-1.40762 4.53375,-2.11125 7.58125,-2.11125 2.4225,0 4.7675,0.39113 6.87875,1.251 2.11,0.78125 3.90875,2.2675 5.39375,4.37738 1.40625,2.11137 2.11125,5.003 2.11125,8.59762 l 0,27.82866"
       style="fill:#323232;fill-opacity:1;fill-rule:nonzero;stroke:none;display:inline"
       id="path3457"
       inkscape:connector-curvature="0" /><path
       d="m 208.41059,179.16955 c 0,-2.42237 -0.3125,-4.29887 -0.9375,-5.70512 -0.625,-1.48625 -1.955,-2.189 -3.90875,-2.189 -1.955,0 -3.205,0.78125 -3.90875,2.26662 -0.70375,1.48488 -1.01625,3.36138 -1.01625,5.6275 l 0,24.07613 c 0,5.55125 1.6425,8.36476 5.0025,8.36476 1.955,0 3.28375,-0.78125 3.90875,-2.42339 0.5475,-1.56387 0.86,-3.5175 0.86,-5.94137 l 0,-24.07613 z m 13.7575,22.90475 c 0,3.439 -0.31375,6.40875 -0.93875,8.83253 -0.625,2.42236 -1.64125,4.45507 -3.12625,6.17382 -1.4075,1.64259 -3.28375,2.89357 -5.70625,3.75245 -2.345,0.85986 -5.23625,1.33008 -8.755,1.33008 -3.43875,0 -6.33125,-0.47022 -8.755,-1.33008 -2.4225,-0.85888 -4.3775,-2.10986 -5.86125,-3.75245 -1.48625,-1.71875 -2.50125,-3.82861 -3.1275,-6.25146 -0.70375,-2.42476 -1.01625,-5.39501 -1.01625,-8.75489 l 0,-23.84225 c 0,-5.62887 1.6425,-9.92775 4.925,-12.97512 3.20375,-3.04888 7.8175,-4.53375 13.835,-4.53375 6.01875,0 10.63125,1.48487 13.83625,4.53375 3.12625,3.04737 4.69,7.34625 4.69,12.97512 l 0,23.84225"
       style="fill:#323232;fill-opacity:1;fill-rule:nonzero;stroke:none;display:inline"
       id="path3459"
       inkscape:connector-curvature="0" /><path
       d="m 236.4985,201.1358 0,4.14213 c 0,1.95512 0.39,3.44037 1.25,4.61279 0.7825,1.17236 2.18875,1.71972 4.22125,1.71972 1.485,0 2.57875,-0.54736 3.44,-1.71972 0.78125,-1.17242 1.17125,-2.50142 1.17125,-4.14404 0,-2.10988 -0.54625,-3.67238 -1.72,-4.76713 -1.17125,-1.09375 -3.12625,-2.50137 -5.94,-4.22112 -4.92375,-2.814 -8.4425,-5.39413 -10.39625,-7.66025 -2.6575,-3.12738 -3.9875,-7.03513 -3.9875,-11.726 0,-2.73638 0.3925,-5.15925 1.25125,-7.27 0.78125,-2.11038 1.87625,-3.83013 3.36125,-5.23638 1.485,-1.32912 3.28375,-2.42287 5.39375,-3.12737 2.11125,-0.70275 4.53375,-1.01525 7.27,-1.01525 2.81375,0 5.315,0.46875 7.50375,1.32862 2.1875,0.85988 4.06375,2.11138 5.55,3.7515 1.485,1.64113 2.57875,3.67388 3.2825,6.01863 0.70375,2.34512 1.095,5.00237 1.095,7.89637 l -12.66375,0 c -0.0775,-2.73775 -0.39,-4.77 -0.85875,-6.17625 -0.46875,-1.32912 -1.72,-2.11037 -3.675,-2.26662 -2.89125,0 -4.455,1.32775 -4.7675,3.90925 0,1.79587 0.3125,3.126 1.01625,4.14112 0.70375,1.0175 1.71875,2.03225 3.12625,3.04975 1.25,0.78125 2.8925,1.79738 5.0025,3.04738 2.11125,1.17387 3.67375,2.189 4.7675,2.89262 1.095,0.70413 2.11125,1.48538 3.05,2.34513 1.64,1.5635 2.97,3.44 3.82875,5.629 0.86125,2.1885 1.25125,5.00237 1.25125,8.36325 0,3.67387 -0.7025,6.8789 -2.0325,9.53661 -1.32875,2.57861 -3.36,4.61134 -5.94125,5.94093 -2.65625,1.32763 -5.86125,2.03271 -9.69125,2.03271 -2.97,0 -5.6275,-0.39258 -7.89625,-1.17383 -2.26625,-0.70264 -4.14125,-1.79736 -5.6275,-3.20361 -1.485,-1.40772 -2.57875,-2.9712 -3.28375,-4.76905 -0.7025,-1.79736 -1.09375,-3.67339 -1.09375,-5.62739 l 0,-6.2535 12.7425,0"
       style="fill:#323232;fill-opacity:1;fill-rule:nonzero;stroke:none;display:inline"
       id="path3461"
       inkscape:connector-curvature="0" /></g></svg>